<svg width="1600" height="1200" viewBox="0 0 1600 1200" fill="none" xmlns="http://www.w3.org/2000/svg">
<rect width="1600" height="1200" fill="white"/>
<g clip-path="url(#clip0_8816_114173)">
<path d="M951.639 271.117C953.683 285.657 960.507 297.358 971.474 305.237C979.255 310.831 991.113 318.54 992.479 328.259L993.609 336.301L1025.78 331.78L1024.65 323.738C1023.27 313.916 1032.59 303.214 1038.5 295.816C1046.69 285.575 1050.13 271.572 1048.16 257.552L1048.12 257.255C1047.21 250.92 1045.06 244.826 1041.79 239.322C1038.53 233.817 1034.21 229.01 1029.09 225.174C1023.97 221.338 1018.14 218.549 1011.94 216.966C1005.73 215.382 999.283 215.036 992.948 215.946C986.613 216.856 980.519 219.005 975.015 222.271C969.51 225.536 964.703 229.853 960.867 234.976C957.031 240.099 954.242 245.928 952.659 252.129C951.075 258.33 950.729 264.782 951.639 271.117Z" fill="#FFAB58"/>
<path d="M820.75 959.248H787.051V1003.66H820.75V959.248Z" fill="#ED9DA0"/>
<path d="M815 1034.32H743.367C737.207 1034.31 731.128 1032.93 725.573 1030.27L712.367 1023.92C710.912 1023.22 709.705 1022.1 708.907 1020.69C708.109 1019.29 707.759 1017.68 707.903 1016.07C708.046 1014.46 708.677 1012.94 709.711 1011.7C710.745 1010.46 712.132 1009.56 713.688 1009.13L740.932 1001.59L787.541 977.094L787.575 977.271C788.446 981.683 789.797 988.355 789.968 988.759C794.748 994.235 799.658 996.759 804.562 996.259C813.116 995.391 818.803 985.515 818.862 985.414L818.905 985.338L818.992 985.347C819.86 985.383 820.708 985.618 821.471 986.034C822.234 986.451 822.891 987.036 823.392 987.747C825.343 990.688 824.153 995.223 823.957 995.904C826.294 998.191 827.343 1010.96 827.424 1011.99C830.803 1015.57 832.408 1019.01 832.196 1022.22C832.01 1025.03 830.455 1027.64 827.572 1029.97C824 1032.81 819.562 1034.35 814.997 1034.32L815 1034.32Z" fill="#090814"/>
<path d="M920.764 920.096L892.902 939.053L917.888 975.775L945.749 956.818L920.764 920.096Z" fill="#ED9DA0"/>
<path d="M965.654 965.708C964.025 962.943 960.767 960.999 955.949 959.948C955.306 959.14 947.256 949.174 944.039 948.586C943.821 947.914 942.259 943.507 938.987 942.165C937.93 941.735 936.759 941.672 935.661 941.986C935.079 942.14 934.518 942.366 933.991 942.658L933.909 942.699L933.922 942.781C933.935 942.904 934.78 954.267 928.2 959.798C924.422 962.96 918.946 963.645 911.91 961.81C911.542 961.565 906.681 956.81 903.477 953.651L903.34 953.529L903.08 954.008L878.59 1000.01L860.315 1021.57C859.268 1022.8 858.622 1024.32 858.464 1025.93C858.306 1027.53 858.642 1029.15 859.429 1030.56C860.216 1031.97 861.415 1033.11 862.866 1033.82C864.317 1034.53 865.95 1034.78 867.546 1034.53L882.026 1032.35C888.113 1031.43 893.916 1029.15 899.015 1025.7L958.249 985.403C962.035 982.852 964.835 979.084 966.188 974.725C967.256 971.177 967.078 968.153 965.654 965.708Z" fill="#090814"/>
<path d="M888.379 821.142C915.319 865.824 942.562 938.694 942.562 938.694L935.209 941.323L902.422 953.041L898.959 954.286L861.459 899.186C839.913 867.509 814.285 829.836 799.559 808.206V792.801C799.559 763.534 884.173 750.228 947.474 744.367L862.133 789.309C870.132 794.042 879.236 805.96 888.379 821.142Z" fill="#090814"/>
<path d="M872.306 784.181L845.844 781.181C852.584 795.481 850.224 828.889 845.392 862.222C839.013 906.122 828.308 986.878 828.308 986.878L783.492 975.244V755.844C783.492 726.577 868.106 713.271 931.407 707.41C969.218 703.92 999.425 703.07 999.425 703.07L1087.04 808.479L872.306 784.181Z" fill="#090814"/>
<path d="M978.89 686.083L1021.97 705.501L1010.64 730.651L967.555 711.236C963.947 712.562 960.112 713.157 956.272 712.985C952.432 712.813 948.665 711.879 945.19 710.236C931.762 704.184 924.935 690.269 929.944 679.156C934.953 668.043 949.898 663.94 963.327 669.991C966.86 671.506 970.055 673.71 972.728 676.473C975.4 679.236 977.496 682.503 978.892 686.084L978.89 686.083Z" fill="#ED9DA0"/>
<path d="M1114.77 613.588L1079.69 714.922L997.846 689.589L985.719 720.896L1103.63 765.732L1177.39 634.624" fill="#D6D6E3"/>
<path d="M1245.89 1035.72H336V1032.98H1245.89V1035.72Z" fill="#E6E6E6"/>
<path d="M1184.59 525.028C1181.97 522.354 1179.1 519.935 1176.03 517.804C1171.05 513.289 1167.86 507.141 1167.03 500.475C1166.21 493.809 1167.79 487.067 1171.51 481.471C1172.64 480.13 1173.55 478.613 1174.2 476.978C1175.32 473.228 1172.68 469.35 1169.53 467C1166.15 465.033 1162.91 462.828 1159.85 460.401C1157.81 458.156 1156.39 455.419 1155.74 452.46C1155.08 449.5 1155.21 446.422 1156.11 443.527C1158 437.734 1161.67 432.688 1166.61 429.111L1166.28 433.294C1168.91 432.505 1171.27 430.994 1173.08 428.932C1174.41 429.797 1175.5 430.989 1176.24 432.393C1176.98 433.797 1177.34 435.368 1177.3 436.954C1178.81 439.023 1181.23 434.253 1183.79 434.502C1184.82 434.808 1185.71 435.486 1186.28 436.407C1189.87 440.475 1195.89 440.957 1201.24 441.901C1210.48 443.546 1219.21 447.342 1226.72 452.983C1231.88 456.553 1235.93 461.51 1238.39 467.282C1239.97 472.174 1240.57 477.327 1240.17 482.451C1239.75 495.054 1237.51 507.926 1231.1 518.795C1225.83 527.68 1218.05 534.807 1208.74 539.276C1203.88 541.585 1187.71 549.959 1182.91 545.228C1176.87 539.31 1191.17 533.263 1184.59 525.028Z" fill="#090814"/>
<path d="M1201.49 546.146L1136.2 549.277L1128.41 566.816C1128.41 566.816 1045.26 705.688 1002.4 703.9C959.547 702.112 1069.95 808.461 1069.95 808.461L1200.51 642.82L1205.39 566.153L1201.49 546.146Z" fill="#D6D6E3"/>
<path d="M1220.38 511.626C1223.16 503.519 1223.65 494.798 1221.78 486.431C1219.92 478.064 1215.77 470.378 1209.8 464.227C1203.82 458.076 1196.26 453.7 1187.96 451.585C1179.65 449.471 1170.92 449.7 1162.73 452.248C1154.55 454.796 1147.23 459.563 1141.59 466.019C1135.95 472.475 1132.2 480.368 1130.78 488.822C1129.35 497.276 1130.3 505.959 1133.51 513.908C1136.72 521.857 1142.07 528.761 1148.97 533.852L1138.15 592.801L1193.78 571.668C1193.78 571.668 1188.54 556.56 1188.15 541.424C1195.56 539.509 1202.39 535.784 1208.01 530.584C1213.64 525.384 1217.89 518.87 1220.38 511.626Z" fill="#ED9DA0"/>
<path d="M1226.7 657.824C1223.23 653.588 1218.84 650.193 1213.86 647.894C1208.89 645.595 1203.46 644.45 1197.98 644.547C1192.5 644.643 1187.11 645.977 1182.22 648.45C1177.33 650.922 1173.06 654.469 1169.73 658.824L1057.66 805.539L879.032 784.995C874.733 784.501 870.379 784.879 866.23 786.107C862.081 787.335 858.223 789.387 854.885 792.14C851.548 794.894 848.8 798.292 846.807 802.132C844.813 805.972 843.614 810.175 843.283 814.489C842.655 822.631 845.148 830.706 850.254 837.079C855.361 843.451 862.7 847.642 870.783 848.804L1075.63 878.253C1089.42 880.236 1103.49 878.048 1116.03 871.972C1128.57 865.895 1139 856.207 1145.99 844.153L1230.06 699.109C1233.77 692.705 1235.44 685.32 1234.84 677.943C1234.24 670.565 1231.41 663.546 1226.71 657.825L1226.7 657.824Z" fill="#E6E6E6"/>
</g>
<defs>
<clipPath id="clip0_8816_114173">
<rect width="927.664" height="870.722" fill="white" transform="translate(336 165)"/>
</clipPath>
</defs>
</svg>
