<svg width="1600" height="1200" viewBox="0 0 1600 1200" fill="none" xmlns="http://www.w3.org/2000/svg">
<rect width="1600" height="1200" fill="white"/>
<g clip-path="url(#clip0_8816_114223)">
<path d="M1182.08 744.435H331.966C326.163 744.429 320.6 742.12 316.496 738.017C312.393 733.914 310.085 728.35 310.078 722.547V198.351C310.083 194.099 311.774 190.023 314.78 187.017C317.786 184.011 321.862 182.319 326.113 182.314H1187.65C1191.98 182.319 1196.13 184.04 1199.18 187.098C1202.24 190.156 1203.96 194.303 1203.97 198.628V722.547C1203.96 728.35 1201.65 733.914 1197.55 738.017C1193.45 742.12 1187.88 744.429 1182.08 744.435Z" fill="#F2F2F2"/>
<path d="M1151.07 713.437H358.785C347.171 713.437 337.723 704.595 337.723 693.713V237.237C337.723 229.171 344.724 222.609 353.33 222.609H1156.26C1165.01 222.609 1172.13 229.277 1172.13 237.479V693.713C1172.13 704.589 1162.67 713.437 1151.07 713.437Z" fill="white"/>
<path d="M1203.66 197.099H309.773V185.955C309.782 180.132 312.099 174.551 316.218 170.435C320.336 166.319 325.919 164.005 331.741 164H1181.7C1187.52 164.005 1193.1 166.319 1197.22 170.435C1201.34 174.551 1203.66 180.132 1203.66 185.955V197.099Z" fill="#E6E6E6"/>
<path d="M349.694 186.265C352.832 186.265 355.376 183.721 355.376 180.583C355.376 177.444 352.832 174.9 349.694 174.9C346.556 174.9 344.012 177.444 344.012 180.583C344.012 183.721 346.556 186.265 349.694 186.265Z" fill="white"/>
<path d="M371.268 186.265C374.406 186.265 376.95 183.721 376.95 180.583C376.95 177.444 374.406 174.9 371.268 174.9C368.13 174.9 365.586 177.444 365.586 180.583C365.586 183.721 368.13 186.265 371.268 186.265Z" fill="white"/>
<path d="M392.831 186.265C395.969 186.265 398.513 183.721 398.513 180.583C398.513 177.444 395.969 174.9 392.831 174.9C389.692 174.9 387.148 177.444 387.148 180.583C387.148 183.721 389.692 186.265 392.831 186.265Z" fill="white"/>
<path d="M669.983 565.545H631.512C629.753 565.544 628.067 564.844 626.824 563.601C625.58 562.357 624.881 560.671 624.879 558.912V523.094C624.881 521.335 625.58 519.649 626.824 518.406C628.067 517.162 629.753 516.463 631.512 516.461H669.983C671.742 516.463 673.428 517.162 674.671 518.406C675.915 519.649 676.614 521.335 676.616 523.094V558.912C676.614 560.671 675.915 562.357 674.671 563.601C673.428 564.844 671.742 565.544 669.983 565.545Z" fill="#FFAB58"/>
<path d="M756.209 565.545H717.739C715.98 565.543 714.294 564.843 713.05 563.6C711.807 562.356 711.107 560.67 711.105 558.911V477.991C711.107 476.232 711.807 474.546 713.05 473.302C714.294 472.059 715.98 471.359 717.739 471.357H756.209C757.968 471.359 759.654 472.059 760.898 473.302C762.141 474.546 762.841 476.232 762.843 477.991V558.911C762.841 560.67 762.141 562.356 760.898 563.6C759.654 564.843 757.968 565.543 756.209 565.545Z" fill="#FFAB58"/>
<path d="M843.76 565.544H805.289C803.531 565.542 801.845 564.842 800.601 563.599C799.358 562.355 798.658 560.669 798.656 558.911V432.887C798.658 431.128 799.358 429.442 800.601 428.199C801.845 426.955 803.531 426.256 805.289 426.254H843.76C845.519 426.256 847.205 426.955 848.448 428.199C849.692 429.442 850.391 431.128 850.393 432.887V558.911C850.391 560.669 849.692 562.355 848.448 563.599C847.205 564.842 845.519 565.542 843.76 565.544Z" fill="#FFAB58"/>
<path d="M933.963 565.543H895.492C893.734 565.541 892.048 564.841 890.804 563.598C889.561 562.354 888.861 560.668 888.859 558.909V389.11C888.861 387.351 889.561 385.665 890.804 384.421C892.048 383.178 893.734 382.478 895.492 382.477H933.963C935.722 382.478 937.408 383.178 938.652 384.421C939.895 385.665 940.595 387.351 940.596 389.11V558.909C940.595 560.668 939.895 562.354 938.652 563.598C937.408 564.841 935.722 565.541 933.963 565.543Z" fill="#FFAB58"/>
<path d="M232.23 820.747L398.735 825.673C402.766 825.787 406.679 824.298 409.614 821.531C412.549 818.765 414.267 814.947 414.39 810.916L416.818 728.913L416.488 728.912L345.157 796.139L324.302 774.017C323.918 773.608 323.444 773.292 322.918 773.096C322.391 772.9 321.827 772.829 321.268 772.887C320.422 772.992 319.634 773.372 319.027 773.97L281.642 809.197L266.398 793.026C266.069 792.676 265.675 792.394 265.237 792.197C264.799 792 264.326 791.891 263.846 791.877C263.366 791.862 262.888 791.943 262.439 792.114C261.99 792.284 261.58 792.542 261.23 792.872C260.983 793.114 236.813 816.313 232.23 820.747Z" fill="#FFAB58"/>
</g>
<defs>
<clipPath id="clip0_8816_114223">
<rect width="1391.56" height="871" fill="white" transform="translate(104 164)"/>
</clipPath>
</defs>
</svg>
