<svg width="1600" height="1200" viewBox="0 0 1600 1200" fill="none" xmlns="http://www.w3.org/2000/svg">
<rect width="1600" height="1200" fill="white"/>
<g clip-path="url(#clip0_8816_114152)">
<path d="M1274.53 223.342C1249.56 222.63 1221.3 223.252 1196.16 223.242L1042.55 223.216L898.143 223.15C874.17 223.142 850.11 223.05 826.133 223.204C825.137 223.17 824.147 223.37 823.242 223.788C822.338 224.206 821.543 224.83 820.923 225.61C819.123 231.296 819.923 257.26 819.923 264.666V325.89L819.962 352.005C819.946 355.785 819.476 367.968 820.374 370.979C821.535 372.211 821.889 371.914 823.795 371.479C839.173 368.009 855.552 365.741 871.322 367.1C873.305 367.2 881.628 368.383 882.322 370.239C883.777 374.145 878.596 380.73 878.241 385.863C876.586 409.754 907.409 418.732 923.61 404.775C931.01 398.401 933.197 389.818 930.263 380.649C929.379 377.815 927.221 373.278 927.423 370.44C935.56 363.24 969.692 370.304 979.47 372.804C974.401 388.661 971.33 407.136 974.232 423.359C977.37 440.9 987.063 432.307 997.532 429.427C1002.28 428.406 1007.23 429.293 1011.33 431.898C1013.45 433.41 1015.26 435.332 1016.63 437.551C1018.01 439.771 1018.93 442.243 1019.33 444.822C1021.15 456.381 1014.48 465.809 1002.88 467.606C992.752 468.26 990.282 462.593 981.644 463.065C980.044 463.152 977.409 465.473 976.662 467.087C969.562 482.418 975.479 524.274 979.471 539.817C912.497 539.797 1083.77 539.77 1083.77 539.77L1213.76 539.817L1251.81 539.845C1258.89 539.86 1265.97 539.932 1273.04 539.777C1276.76 539.695 1279.72 537.296 1279.73 533.406C1279.8 517.869 1279.75 502.329 1279.77 486.791L1279.75 383.591L1279.79 282.583C1279.8 265.009 1280.34 244.543 1279.64 227.352C1277.89 224.885 1277.52 224.145 1274.53 223.342Z" fill="#090814"/>
<path d="M1243.32 367.727C1239.19 367.088 1227.16 366.927 1223.66 369.637C1223.38 369.859 1222.66 370.642 1222.7 370.857C1224.16 378.357 1227.53 382.331 1226.49 390.457C1226.14 393.269 1225.24 395.985 1223.84 398.445C1222.43 400.905 1220.55 403.06 1218.3 404.785C1201.09 417.867 1171.08 405.015 1178.47 381.119C1179.49 377.829 1181.04 374.301 1181.56 370.932C1175.46 363.256 1140.55 370.219 1131.5 372.247C1133.43 387.171 1135.1 403.03 1133.03 418.001C1132.41 422.476 1131.03 429.928 1127.08 432.565C1121.4 436.265 1115.06 431.426 1109.18 430.298C1091.98 426.992 1083.68 447.833 1092.86 460.537C1097.07 466.695 1104.88 468.513 1111.86 466.477C1119.53 464.238 1124.91 459.75 1130.66 468.226C1138.1 483.948 1133.32 517.733 1130.21 534.686L1274.41 534.857C1274.73 527.757 1274.51 520.264 1274.5 513.129L1274.47 475.98C1274.52 442.033 1274.89 407.374 1274.49 373.464C1263.79 370.944 1254.33 368.641 1243.32 367.727Z" fill="#FFAB58"/>
<path d="M985.018 228.102C932.164 227.493 878.136 228.065 825.176 228.077L825.216 366.088C840.208 361.907 864.768 360.228 880.005 363.601C891.761 366.201 887.452 376.008 883.894 382.917C881.856 386.874 883.582 392.944 885.655 397.054C888.676 401.788 894.143 404.844 899.546 405.998C905.454 407.26 912.63 406.434 917.718 403.011C935.618 390.969 920.318 378.319 922.208 370.083C922.46 369.111 922.908 368.201 923.523 367.407C924.139 366.613 924.91 365.954 925.789 365.467C937.163 358.572 968.749 364.985 981.089 368.06C985.289 356.76 988.472 337.334 987.137 325.206C986.874 322.82 986.337 318.764 984.195 317.289C980.403 315.333 974.318 319.681 970.236 320.005C949.272 321.666 940.301 297.732 952.041 282.326C956.641 276.284 965.309 274.526 972.469 276.056C975.875 276.786 979.986 278.646 983.469 278.256C991.309 272.946 986.597 237.198 985.018 228.102Z" fill="#FFAB58"/>
<path d="M1056.81 336.46C1043.21 335.799 1034.07 346.12 1037.45 359.56C1038.34 363.109 1043.37 373.332 1038.42 375.76C1025.21 382.252 997.851 376.843 984.432 373.775C981.069 383.086 973.777 417.108 981.46 428.411C983.3 431.117 993.825 424.085 999.099 424.155C1005.64 424.243 1011.2 424.601 1016.65 429.809C1034.49 447.319 1020.26 477.427 994.779 471.897C991.232 471.127 986.625 467.867 983.091 467.964C980.028 468.049 978.991 476.027 978.734 478.321C976.658 496.821 979.097 516.458 982.819 534.637L1046.54 534.718L1125.01 534.781C1128.13 522.592 1133.86 481.317 1124.55 468.508C1120.1 467.841 1114.54 471.408 1109.78 471.862C1073.05 475.425 1077.6 416.444 1113.15 426.256C1123.05 428.99 1125.75 432.972 1127.93 418.224C1130.11 403.431 1128.59 388.048 1126.58 373.31C1110.97 376.88 1094.1 379.744 1077.91 378.246C1075.55 378.028 1072.37 376.9 1071 374.823C1067.59 369.414 1072.56 363.086 1073.25 357.413C1074.63 345.954 1067.99 338.096 1056.81 336.46Z" fill="#FFAB58"/>
<path d="M1122.6 228.094L990.022 228.116C992.337 242.857 994.673 261.431 990.688 276.14C985.106 292.518 971.605 275.228 960.339 281.94C944.602 291.321 951.986 318.475 971.119 314.84C975.434 314.021 980.266 310.45 984.947 312.092C986.102 312.501 987.161 313.144 988.058 313.981C988.954 314.817 989.669 315.829 990.158 316.954C995.658 330.759 990.223 356.306 985.868 369.232C1000.18 371.954 1018.73 375.562 1033.63 372.717C1035.56 372.348 1035.67 371.083 1035.91 369.417C1028.17 353.861 1031.62 335.762 1050.82 331.882C1067.4 328.533 1081.7 343.531 1078.11 359.798C1077.32 363.352 1074.62 367.12 1074.49 370.789C1074.46 373.617 1081.53 373.64 1083.31 373.676C1097.67 373.969 1111.78 371.711 1125.73 368.476C1123.2 356.965 1117.41 322.27 1125.18 311.521C1128.92 306.351 1139.41 314.049 1145.94 314.021C1163.21 313.959 1168.55 292.268 1157.47 280.957C1139.03 265.109 1121.79 302.607 1121.54 255.692C1121.49 247.406 1122.12 236.847 1122.6 228.094Z" fill="#FFAB58"/>
<path d="M1274.08 228.258C1257.69 227.668 1238.54 228.151 1221.97 228.158L1127.63 228.112C1127.04 238.573 1126.31 249.46 1126.59 259.894C1126.68 263.011 1127.17 273.462 1129.63 275.109C1132.84 277.255 1138.96 271.716 1145.05 271.795C1147.86 271.591 1150.67 271.965 1153.32 272.894C1155.97 273.822 1158.41 275.286 1160.47 277.195C1168.82 284.954 1170.55 298.343 1164.88 308.183C1159.96 316.718 1149.7 320.499 1140.25 318.283C1136.87 317.492 1133.14 314.691 1129.48 314.768C1122.23 318.437 1129.17 359.806 1130.69 367.345L1135.03 366.428C1146.96 363.335 1164.92 361.437 1177.23 363.506C1180.27 364.017 1183.91 365.455 1185.56 368.242C1188.99 374.01 1183.63 378.58 1182.48 383.781C1181.99 385.928 1181.93 388.151 1182.31 390.32C1182.69 392.489 1183.49 394.562 1184.68 396.42C1186.16 398.586 1188.06 400.434 1190.27 401.854C1192.47 403.274 1194.94 404.237 1197.53 404.687C1203.36 405.874 1209.42 404.698 1214.39 401.417C1230.24 390.497 1216.13 378.124 1218.01 369.903C1218.26 368.887 1218.73 367.936 1219.37 367.108C1220.01 366.281 1220.81 365.595 1221.73 365.095C1233.09 358.361 1262.16 365.41 1274.5 368.495L1274.57 267.842C1274.57 262.098 1275.23 231.674 1274.08 228.258Z" fill="#FFAB58"/>
<path d="M835.534 427.902C826.147 429.217 816.734 431.543 807.193 432.528C804.202 432.837 784.253 434.928 783.119 435.973C780.719 439.953 785.219 443.114 786.007 446.536C793.086 477.112 740.573 478.4 748.529 447.351C749.252 444.545 751.576 440.542 749.124 438.22C743.789 437.71 733.191 438.774 727.266 438.954C715.986 439.295 704.644 439.389 693.384 439.954C691.66 439.902 688.147 440.42 687.234 442.269C685.085 446.628 687.162 458.56 687.624 463.192L690.312 490.692L698.72 578.313C699.62 587.859 705.04 586.299 712.55 585.525L809.127 575.351C817.376 574.469 825.633 573.651 833.898 572.895C839.074 572.421 844.255 572.039 849.405 571.317C851.329 571.308 853.714 568.585 853.273 566.594C849.995 551.773 845.019 537.194 845.599 521.752C845.707 518.809 845.517 516.145 847.635 513.805C853.391 514.243 857.597 517.21 864.225 516.937C869.849 516.526 875.097 513.963 878.877 509.779C883.096 504.843 885.204 498.446 884.746 491.969C884.396 485.177 881.381 478.797 876.355 474.215C870.446 469.085 860.623 467.215 853.406 470.655C850.974 471.815 848.106 474.647 845.383 474.739C838.715 474.963 838.72 435.414 836.899 429.676C836.608 428.975 836.137 428.363 835.534 427.902Z" fill="#090814"/>
<path d="M832.676 433.055C818.395 435.879 802.328 437.955 787.853 439.397C788.007 439.697 788.153 439.997 788.304 440.297C794.67 453.167 791.187 465.967 777.88 472.315C771.48 475.319 764.15 475.666 757.495 473.278C743.317 468.221 740.085 456.017 744.948 442.768C727.215 443.605 708.448 443.453 691.148 444.75C694.723 489.674 699.586 536.591 704.183 581.516C708.461 581.152 712.736 580.752 717.007 580.316L848.686 566.673C844.593 553.594 836.57 525.205 843.5 511.179C847.424 505.993 853.877 511.131 858.048 511.77C892.812 517.089 882.622 459.199 851.461 477.03C843.52 481.571 839.591 480.639 837.282 471.416C834.245 459.213 833.722 445.467 832.676 433.055Z" fill="#FFAB58"/>
<path d="M358.313 611.289L321.121 738.414C319.963 742.372 319.698 746.537 320.345 750.61C320.991 754.683 322.533 758.561 324.86 761.966C327.186 765.371 330.239 768.217 333.799 770.299C337.358 772.382 341.335 773.648 345.443 774.008L386.023 777.56L358.313 611.289Z" fill="#D6D6E3"/>
<path d="M695.857 587.838L646.113 670.105L622.691 640.432L668.467 568.765C666.841 560.429 668.81 550.749 674.629 542.392C684.809 527.768 702.877 522.745 714.979 531.168C727.081 539.591 728.638 558.279 718.458 572.903C715.87 576.766 712.539 580.075 708.659 582.637C704.778 585.2 700.427 586.964 695.858 587.828L695.857 587.838Z" fill="#ED9DA0"/>
<path d="M385.727 787.273L379.757 807.587L379.957 828.188C379.957 828.188 340.657 875.447 355.137 977.659H538.528L517.307 810.878L385.728 787.271L385.727 787.273Z" fill="#090814"/>
<path d="M406.451 505.731C406.454 496.082 409.13 486.622 414.184 478.403C419.238 470.183 426.471 463.524 435.08 459.166C443.689 454.809 453.337 452.922 462.954 453.716C472.57 454.51 481.779 457.954 489.556 463.665C497.334 469.376 503.376 477.131 507.013 486.069C510.65 495.006 511.739 504.777 510.158 514.296C508.578 523.815 504.39 532.709 498.06 539.992C491.73 547.275 483.506 552.661 474.3 555.552L466.516 561.823L480.486 610.732L464.202 622.255L412.756 579.381C412.756 579.381 423.871 565.224 429.83 549.26C422.638 544.504 416.738 538.038 412.658 530.442C408.577 522.845 406.444 514.356 406.449 505.733L406.451 505.731Z" fill="#ED9DA0"/>
<path d="M658.113 585.229C639.684 584.948 605.613 644.099 605.613 644.099L577.622 634.199L520.052 613.82L475.935 595.662L476.128 596.996C475.952 596.577 475.77 596.16 475.557 595.729C470.919 586.177 457.446 574.929 419.2 577.156L401.19 591.372L398.741 593.319C391.016 592.905 383.289 594.108 376.055 596.853C367.863 600.146 359.671 606.286 355.795 617.774C353.79 623.695 353.79 635.947 354.99 651.507C359.347 707.847 379.65 827.622 379.65 827.622L507.85 810.647L517.307 810.868C517.307 810.868 518.432 797.958 519.435 781.051C520.057 771.135 520.619 759.868 520.941 749.026C521.162 741.075 521.222 733.364 521.082 726.579C521.062 726.156 521.062 725.736 521.041 725.313C520.659 712.925 519.415 703.95 516.741 702.966C516.741 702.966 525.033 702.745 537 702.303C565.914 701.219 616.31 698.793 623.5 694.874C633.66 689.352 686.928 615.243 686.928 615.243C686.928 615.243 676.569 585.526 658.117 585.227L658.113 585.229Z" fill="#D6D6E3"/>
<path d="M434.93 430.795C437.723 430.8 440.508 431.077 443.246 431.621C448.196 429.219 453.625 427.968 459.126 427.963H460.567C488.348 427.963 510.867 453.101 510.867 484.111H501.554L500.054 472.669L497.854 484.111H490.099C492.511 493.293 493.721 502.749 493.699 512.242V569.393H479.626L471.478 548.219L473.516 569.393H367.316V524.515C367.308 472.757 397.583 430.795 434.93 430.795Z" fill="#090814"/>
</g>
<defs>
<clipPath id="clip0_8816_114152">
<rect width="960" height="754.659" fill="white" transform="translate(320 223)"/>
</clipPath>
</defs>
</svg>
