<svg width="1600" height="1200" viewBox="0 0 1600 1200" fill="none" xmlns="http://www.w3.org/2000/svg">
<rect width="1600" height="1200" fill="white"/>
<g clip-path="url(#clip0_8816_114153)">
<path d="M694.379 367.286C699.062 389.305 695.367 409.74 683.703 426.843C675.427 438.985 662.387 456.309 665.517 471.028L668.107 483.206L619.386 493.568L616.796 481.39C613.633 466.517 594.602 455.984 582.203 448.43C565.027 437.973 552.731 419.604 548.215 398.372L548.12 397.925C544.058 378.53 547.866 358.315 558.708 341.728C569.55 325.141 586.537 313.54 605.933 309.478C625.328 305.415 645.543 309.224 662.13 320.066C678.717 330.908 690.318 347.895 694.38 367.29L694.379 367.286Z" fill="#FFAB58"/>
<path d="M945.114 496.866C945.112 485.295 941.902 473.952 935.843 464.095C929.783 454.238 921.11 446.253 910.787 441.028C900.464 435.802 888.894 433.539 877.363 434.492C865.831 435.444 854.789 439.573 845.463 446.422C836.137 453.27 828.891 462.569 824.53 473.286C820.169 484.004 818.864 495.72 820.76 507.134C822.655 518.549 827.677 529.214 835.268 537.947C842.858 546.68 852.721 553.138 863.76 556.604L873.097 564.125L856.338 622.769L875.867 636.585L937.56 585.175C937.56 585.175 924.232 568.197 917.085 549.058C925.708 543.354 932.781 535.6 937.673 526.492C942.565 517.384 945.122 507.205 945.115 496.866H945.114Z" fill="#ED9DA0"/>
<path d="M665.453 657.261L710.304 813.118L755.661 781.639L702.208 645.657C706.869 637.025 708.028 625.678 704.487 614.457C698.287 594.833 680.105 583.08 663.863 588.207C647.621 593.334 639.479 613.4 645.673 633.023C649.213 644.238 656.673 652.864 665.449 657.255L665.453 657.261Z" fill="#ED9DA0"/>
<path d="M976.922 718.801H815.137V907.233H976.922V718.801Z" fill="#ED9DA0"/>
<path d="M702.272 1002.24H1078.97C1079.54 1002.16 1080.06 1001.87 1080.44 1001.44C1080.81 1001 1081.02 1000.45 1081.02 999.874C1081.02 999.3 1080.81 998.744 1080.44 998.31C1080.06 997.875 1079.54 997.589 1078.97 997.506H702.272C701.697 997.582 701.17 997.864 700.788 998.299C700.406 998.735 700.195 999.295 700.195 999.874C700.195 1000.45 700.406 1001.01 700.788 1001.45C701.17 1001.89 701.697 1002.17 702.272 1002.24Z" fill="#CCCCCC"/>
<path d="M986.85 836.491L1023.55 947.997L1025.74 1001.32H754.406L806.736 836.488L986.85 836.491Z" fill="#090814"/>
<path d="M922.612 568.543L961.072 656.372L957.267 807.318H827.279L823.199 647.153L871.457 572.77L922.612 568.543Z" fill="#FFAB58"/>
<path d="M999.883 603.493C999.883 603.493 1011.14 926.467 1041.37 979.767C1041.37 979.767 999.594 987.048 988.969 971.99C978.344 956.932 937.354 856.678 936.91 834.476C936.466 812.274 923.629 568.436 923.629 568.436L999.884 603.493H999.883Z" fill="#E6E6E6"/>
<path d="M874.858 581.647L871.458 572.775L785.258 607.008C785.258 607.008 789.28 929.771 754.383 962.385C754.383 962.385 812.683 959.604 814.62 958.269C816.557 956.934 858.882 790.033 858.882 790.033C858.882 790.033 838.706 712.715 837.148 679.701C835.59 646.687 874.857 581.651 874.857 581.651L874.858 581.647Z" fill="#E6E6E6"/>
<path d="M807.133 613.312L785.26 607.002L734.966 708.856L713.412 653.068L660.16 668.282C660.16 668.282 684.367 825.361 720.96 816.913C757.553 808.465 807.134 722.202 807.134 722.202L807.133 613.312Z" fill="#E6E6E6"/>
<path d="M1022.75 924.353L1096.15 817.647L1062.4 787.963L993.428 904.095C984.482 905.587 975.54 911.175 969.359 920.121C958.544 935.772 960.276 955.721 973.229 964.667C986.182 973.613 1005.45 968.185 1016.26 952.537C1022.44 943.591 1024.51 933.251 1022.74 924.356L1022.75 924.353Z" fill="#ED9DA0"/>
<path d="M986.855 612.498L999.883 603.498L1106.46 804.795C1106.46 804.795 1115.11 816.934 1103.83 836.495C1092.54 856.056 1034.61 915.95 1034.61 915.95L988.968 890.166L1035.46 803.525L991.634 727.725L986.855 612.498Z" fill="#E6E6E6"/>
<path d="M820.99 491.442C825.171 470.988 827.177 460.51 842.374 446.042C845.981 446.552 841.422 465.256 861.304 491.31C890.204 529.184 887.326 494.458 895.872 506.124C897.727 508.656 898.127 517.795 897.515 520.938C895.105 533.36 880.847 521.23 895.872 563.738C898.106 567.044 900.742 566.238 904.102 566.207C904.363 566.207 902.657 565.878 909.041 564.564C912.087 563.935 916.351 563.192 921.463 562.331C980.85 552.325 1001.81 477.395 955.915 438.412C945.472 429.537 935.223 422.818 926.324 419.703C899.524 410.321 838.456 416.425 826.736 446.863C821.214 461.032 819.241 476.336 820.99 491.443V491.442Z" fill="#090814" stroke="black" stroke-width="2"/>
<path d="M943.298 611.718C966.689 611.718 985.651 592.756 985.651 569.365C985.651 545.974 966.689 527.012 943.298 527.012C919.907 527.012 900.945 545.974 900.945 569.365C900.945 592.756 919.907 611.718 943.298 611.718Z" fill="#090814" stroke="black" stroke-width="2"/>
<path d="M837.046 200.287L886.139 204.575C893.083 205.182 899.502 208.522 903.983 213.861C908.465 219.2 910.641 226.101 910.035 233.045L905.747 282.138C905.14 289.082 901.8 295.501 896.461 299.982C891.121 304.464 884.221 306.64 877.277 306.034L828.184 301.746C821.24 301.139 814.821 297.799 810.34 292.46C805.858 287.12 803.681 280.22 804.288 273.276L808.576 224.183C809.183 217.239 812.523 210.82 817.862 206.339C823.201 201.857 830.102 199.68 837.046 200.287Z" fill="#F2F2F2"/>
<path d="M875.49 245.246C875.344 247.692 874.692 250.08 873.573 252.26C872.455 254.44 870.895 256.364 868.994 257.908C866.296 260.07 862.173 263.07 861.865 266.596L861.61 269.513L849.939 268.494L850.194 265.576C850.505 262.014 846.949 258.336 844.679 255.784C843.096 253.92 841.907 251.754 841.184 249.417C840.462 247.08 840.221 244.62 840.477 242.188L840.486 242.08C840.694 239.782 841.352 237.547 842.424 235.503C843.496 233.459 844.959 231.646 846.732 230.168C848.504 228.69 850.55 227.575 852.753 226.888C854.956 226.2 857.273 225.953 859.571 226.161C861.869 226.369 864.104 227.028 866.148 228.099C868.192 229.171 870.005 230.635 871.483 232.407C872.961 234.179 874.076 236.225 874.764 238.428C875.451 240.631 875.698 242.948 875.49 245.246Z" fill="#FFAB58"/>
<path d="M365.084 357.106C374.859 354.669 385.136 355.185 394.617 358.589C404.098 361.993 412.357 368.132 418.349 376.23C424.341 384.328 427.797 394.02 428.28 404.082C428.764 414.144 426.252 424.124 421.064 432.758C415.876 441.393 408.243 448.296 399.132 452.593C390.021 456.89 379.841 458.389 369.878 456.9C359.915 455.411 350.617 451.001 343.16 444.228C335.704 437.454 330.423 428.622 327.986 418.848C324.718 405.741 326.791 391.872 333.748 380.294C340.705 368.715 351.977 360.374 365.084 357.106Z" fill="#F2F2F2"/>
<path d="M392.167 393.075C392.825 395.435 392.985 397.907 392.637 400.332C392.289 402.758 391.44 405.085 390.144 407.165C388.297 410.087 385.374 414.267 386.23 417.702L386.939 420.544L375.569 423.378L374.86 420.536C373.995 417.066 369.435 414.745 366.458 413.07C364.353 411.823 362.523 410.161 361.08 408.186C359.636 406.211 358.607 403.963 358.057 401.579L358.031 401.475C357.479 399.233 357.375 396.905 357.723 394.623C358.071 392.341 358.865 390.15 360.06 388.176C361.255 386.201 362.827 384.48 364.687 383.113C366.547 381.746 368.658 380.758 370.899 380.207C373.14 379.655 375.468 379.551 377.75 379.899C380.032 380.247 382.223 381.041 384.198 382.236C386.173 383.431 387.893 385.003 389.26 386.863C390.628 388.723 391.615 390.833 392.167 393.075Z" fill="#FFAB58"/>
</g>
<defs>
<clipPath id="clip0_8816_114153">
<rect width="794.63" height="804.245" fill="white" transform="translate(315 198)"/>
</clipPath>
</defs>
</svg>
